<svg xmlns="http://www.w3.org/2000/svg" viewBox="0 0 2000 2000"><defs><pattern id="pink2" width="18" height="18" patternUnits="userSpaceOnUse" patternTransform="rotate(15)"><circle cx="9" cy="9" r="5" fill="#ff48b0"/></pattern><pattern id="pink4" width="18" height="18" patternUnits="userSpaceOnUse" patternTransform="rotate(15)"><circle cx="9" cy="9" r="10" fill="#ff48b0"/></pattern><pattern id="green2" width="18" height="18" patternUnits="userSpaceOnUse" patternTransform="rotate(60)"><circle cx="9" cy="9" r="5" fill="#00a95c"/></pattern><pattern id="indigo1" width="18" height="18" patternUnits="userSpaceOnUse" patternTransform="rotate(105)"><circle cx="9" cy="9" r="3" fill="#2b3a87"/></pattern><pattern id="indigo2" width="18" height="18" patternUnits="userSpaceOnUse" patternTransform="rotate(105)"><circle cx="9" cy="9" r="5" fill="#2b3a87"/></pattern><pattern id="indigo3" width="18" height="18" patternUnits="userSpaceOnUse" patternTransform="rotate(105)"><circle cx="9" cy="9" r="7" fill="#2b3a87"/></pattern><pattern id="indigo4" width="18" height="18" patternUnits="userSpaceOnUse" patternTransform="rotate(105)"><circle cx="9" cy="9" r="10" fill="#2b3a87"/></pattern><pattern id="black1" width="18" height="18" patternUnits="userSpaceOnUse" patternTransform="rotate(45)"><circle cx="9" cy="9" r="3" fill="#1c1b1f"/></pattern><pattern id="black2" width="18" height="18" patternUnits="userSpaceOnUse" patternTransform="rotate(45)"><circle cx="9" cy="9" r="5" fill="#1c1b1f"/></pattern><pattern id="black4" width="18" height="18" patternUnits="userSpaceOnUse" patternTransform="rotate(45)"><circle cx="9" cy="9" r="10" fill="#1c1b1f"/></pattern><mask id="hm"><path d="M700 800H1300A60 60 0 0 1 1360 860V1180C1360 1380 1180 1500 1000 1540C820 1500 640 1380 640 1180V860A60 60 0 0 1 700 800Z" fill="#fff"/><path d="M700 800H1300A60 60 0 0 1 1360 860V1180C1360 1380 1180 1500 1000 1540C820 1500 640 1380 640 1180V860A60 60 0 0 1 700 800Z" fill="#000" transform="translate(-90 -80)"/></mask><mask id="bm"><path d="M500 2040V1980C500 1760 640 1620 1000 1620C1360 1620 1500 1760 1500 1980V2040Z" fill="#fff"/><path d="M500 2040V1980C500 1760 640 1620 1000 1620C1360 1620 1500 1760 1500 1980V2040Z" fill="#000" transform="translate(-170 -90)"/></mask><filter id="hand" x="-5%" y="-5%" width="110%" height="110%" color-interpolation-filters="sRGB"><feTurbulence type="fractalNoise" baseFrequency="0.008" numOctaves="2" seed="13" result="w"/><feDisplacementMap in="SourceGraphic" in2="w" scale="22" xChannelSelector="R" yChannelSelector="G" result="a"/><feTurbulence type="fractalNoise" baseFrequency="0.12" numOctaves="1" seed="17" result="r"/><feDisplacementMap in="a" in2="r" scale="6" xChannelSelector="R" yChannelSelector="G"/></filter><filter id="g" x="0" y="0" width="100%" height="100%" color-interpolation-filters="sRGB"><feTurbulence type="fractalNoise" baseFrequency="0.45" numOctaves="2" seed="1"/><feColorMatrix type="matrix" values="0 0 0 0 0.35 0 0 0 0 0.28 0 0 0 0 0.18 0 0 0 0.16 0"/></filter><filter id="s" x="0" y="0" width="100%" height="100%" color-interpolation-filters="sRGB"><feTurbulence type="fractalNoise" baseFrequency="0.28" numOctaves="1" seed="7"/><feColorMatrix type="matrix" values="0 0 0 0 0.96 0 0 0 0 0.93 0 0 0 0 0.85 9 0 0 0 -5.6"/></filter></defs><rect width="2000" height="2000" fill="#f4ecd8"/><g filter="url(#hand)"><circle cx="1000" cy="1080" r="760" fill="url(#green2)" transform="translate(-2 -2)"/><g transform="translate(70 60)" opacity="0.85"><path d="M500 2040V1980C500 1760 640 1620 1000 1620C1360 1620 1500 1760 1500 1980V2040Z" fill="url(#indigo1)" transform="translate(2 2)" style="mix-blend-mode:multiply"/><path d="M700 800H1300A60 60 0 0 1 1360 860V1180C1360 1380 1180 1500 1000 1540C820 1500 640 1380 640 1180V860A60 60 0 0 1 700 800Z" fill="url(#indigo1)" transform="translate(2 2)" style="mix-blend-mode:multiply"/></g><path d="M500 2040V1980C500 1760 640 1620 1000 1620C1360 1620 1500 1760 1500 1980V2040Z" fill="#f4ecd8"/><path d="M500 2040V1980C500 1760 640 1620 1000 1620C1360 1620 1500 1760 1500 1980V2040Z" fill="url(#black2)" transform="translate(4 4)" style="mix-blend-mode:multiply"/><g mask="url(#bm)"><path d="M500 2040V1980C500 1760 640 1620 1000 1620C1360 1620 1500 1760 1500 1980V2040Z" fill="url(#black4)" transform="translate(4 4)" style="mix-blend-mode:multiply"/><path d="M500 2040V1980C500 1760 640 1620 1000 1620C1360 1620 1500 1760 1500 1980V2040Z" fill="url(#indigo2)" transform="translate(2 2)" style="mix-blend-mode:multiply"/></g><path d="M500 2040V1980C500 1760 640 1620 1000 1620C1360 1620 1500 1760 1500 1980V2040Z" fill="none" stroke="#1c1b1f" stroke-width="14" stroke-linejoin="round" transform="translate(4 4)"/><path d="M926 1790H1074A26 26 0 0 1 1100 1816V1874A26 26 0 0 1 1074 1900H926A26 26 0 0 1 900 1874V1816A26 26 0 0 1 926 1790Z" fill="#f4ecd8"/><path d="M926 1790H1074A26 26 0 0 1 1100 1816V1874A26 26 0 0 1 1074 1900H926A26 26 0 0 1 900 1874V1816A26 26 0 0 1 926 1790Z" fill="url(#black4)" transform="translate(4 4)" style="mix-blend-mode:multiply"/><path d="M926 1790H1074A26 26 0 0 1 1100 1816V1874A26 26 0 0 1 1074 1900H926A26 26 0 0 1 900 1874V1816A26 26 0 0 1 926 1790Z" fill="url(#indigo3)" transform="translate(2 2)" style="mix-blend-mode:multiply"/><path d="M926 1790H1074A26 26 0 0 1 1100 1816V1874A26 26 0 0 1 1074 1900H926A26 26 0 0 1 900 1874V1816A26 26 0 0 1 926 1790Z" fill="none" stroke="#1c1b1f" stroke-width="10" stroke-linejoin="round" transform="translate(4 4)"/><path d="M930 1440H1070A30 30 0 0 1 1100 1470V1630A30 30 0 0 1 1070 1660H930A30 30 0 0 1 900 1630V1470A30 30 0 0 1 930 1440Z" fill="#f4ecd8"/><path d="M930 1440H1070A30 30 0 0 1 1100 1470V1630A30 30 0 0 1 1070 1660H930A30 30 0 0 1 900 1630V1470A30 30 0 0 1 930 1440Z" fill="url(#black4)" transform="translate(4 4)" style="mix-blend-mode:multiply"/><path d="M930 1440H1070A30 30 0 0 1 1100 1470V1630A30 30 0 0 1 1070 1660H930A30 30 0 0 1 900 1630V1470A30 30 0 0 1 930 1440Z" fill="url(#indigo2)" transform="translate(2 2)" style="mix-blend-mode:multiply"/><path d="M930 1440H1070A30 30 0 0 1 1100 1470V1630A30 30 0 0 1 1070 1660H930A30 30 0 0 1 900 1630V1470A30 30 0 0 1 930 1440Z" fill="none" stroke="#1c1b1f" stroke-width="14" stroke-linejoin="round" transform="translate(4 4)"/><path d="M1000 840V680" fill="none" stroke="#1c1b1f" stroke-width="52" stroke-linecap="round" transform="translate(4 4)"/><path d="M1000 840V680" fill="none" stroke="#f4ecd8" stroke-width="36" stroke-linecap="round" stroke-linejoin="round"/><path d="M1000 840V680" fill="none" stroke="url(#indigo4)" stroke-width="36" stroke-linecap="round" stroke-linejoin="round" transform="translate(2 2)" style="mix-blend-mode:multiply"/><path d="M820 650A180 52 0 1 0 1180 650A180 52 0 1 0 820 650Z" fill="#f4ecd8"/><path d="M820 650A180 52 0 1 0 1180 650A180 52 0 1 0 820 650Z" fill="url(#black1)" transform="translate(4 4)" style="mix-blend-mode:multiply"/><path d="M820 650A180 52 0 0 0 1180 650Z" fill="url(#indigo2)" transform="translate(2 2)" style="mix-blend-mode:multiply"/><path d="M820 650A180 52 0 1 0 1180 650A180 52 0 1 0 820 650Z" fill="none" stroke="#1c1b1f" stroke-width="10" stroke-linejoin="round" transform="translate(4 4)"/><path d="M1000 628A22 22 0 1 1 999 628Z" fill="#f4ecd8"/><path d="M1000 628A22 22 0 1 1 999 628Z" fill="url(#pink4)" transform="translate(-2 -2)" style="mix-blend-mode:multiply"/><path d="M1000 628A22 22 0 1 1 999 628Z" fill="none" stroke="#1c1b1f" stroke-width="10" stroke-linejoin="round" transform="translate(4 4)"/><path d="M700 800H1300A60 60 0 0 1 1360 860V1180C1360 1380 1180 1500 1000 1540C820 1500 640 1380 640 1180V860A60 60 0 0 1 700 800Z" fill="#f4ecd8"/><path d="M700 800H1300A60 60 0 0 1 1360 860V1180C1360 1380 1180 1500 1000 1540C820 1500 640 1380 640 1180V860A60 60 0 0 1 700 800Z" fill="url(#black2)" transform="translate(4 4)" style="mix-blend-mode:multiply"/><g mask="url(#hm)"><path d="M700 800H1300A60 60 0 0 1 1360 860V1180C1360 1380 1180 1500 1000 1540C820 1500 640 1380 640 1180V860A60 60 0 0 1 700 800Z" fill="url(#black4)" transform="translate(4 4)" style="mix-blend-mode:multiply"/><path d="M700 800H1300A60 60 0 0 1 1360 860V1180C1360 1380 1180 1500 1000 1540C820 1500 640 1380 640 1180V860A60 60 0 0 1 700 800Z" fill="url(#indigo2)" transform="translate(2 2)" style="mix-blend-mode:multiply"/></g><ellipse cx="790" cy="920" rx="80" ry="44" fill="#f4ecd8" transform="rotate(-24 790 920)"/><path d="M700 800H1300A60 60 0 0 1 1360 860V1180C1360 1380 1180 1500 1000 1540C820 1500 640 1380 640 1180V860A60 60 0 0 1 700 800Z" fill="none" stroke="#1c1b1f" stroke-width="14" stroke-linejoin="round" transform="translate(4 4)"/><path d="M830 1000H1170A100 100 0 0 1 1270 1100V1100A100 100 0 0 1 1170 1200H830A100 100 0 0 1 730 1100V1100A100 100 0 0 1 830 1000Z" fill="#f4ecd8"/><path d="M830 1000H1170A100 100 0 0 1 1270 1100V1100A100 100 0 0 1 1170 1200H830A100 100 0 0 1 730 1100V1100A100 100 0 0 1 830 1000Z" fill="url(#black4)" transform="translate(4 4)" style="mix-blend-mode:multiply"/><path d="M830 1000H1170A100 100 0 0 1 1270 1100V1100A100 100 0 0 1 1170 1200H830A100 100 0 0 1 730 1100V1100A100 100 0 0 1 830 1000Z" fill="none" stroke="#1c1b1f" stroke-width="10" stroke-linejoin="round" transform="translate(4 4)"/><path d="M797 1020H873A17 17 0 0 1 890 1037V1037A17 17 0 0 1 873 1054H797A17 17 0 0 1 780 1037V1037A17 17 0 0 1 797 1020Z" fill="#f4ecd8" opacity="0.85"/><path d="M808 1082H1192A18 18 0 0 1 1210 1100V1100A18 18 0 0 1 1192 1118H808A18 18 0 0 1 790 1100V1100A18 18 0 0 1 808 1082Z" fill="#f4ecd8"/><path d="M808 1082H1192A18 18 0 0 1 1210 1100V1100A18 18 0 0 1 1192 1118H808A18 18 0 0 1 790 1100V1100A18 18 0 0 1 808 1082Z" fill="url(#pink2)" transform="translate(-2 -2)" style="mix-blend-mode:multiply"/><path d="M942 1078H1058A22 22 0 0 1 1080 1100V1100A22 22 0 0 1 1058 1122H942A22 22 0 0 1 920 1100V1100A22 22 0 0 1 942 1078Z" fill="#f4ecd8"/><path d="M942 1078H1058A22 22 0 0 1 1080 1100V1100A22 22 0 0 1 1058 1122H942A22 22 0 0 1 920 1100V1100A22 22 0 0 1 942 1078Z" fill="url(#pink4)" transform="translate(-2 -2)" style="mix-blend-mode:multiply"/><path d="M610 1110A36 36 0 1 1 609 1110Z" fill="#f4ecd8"/><path d="M610 1110A36 36 0 1 1 609 1110Z" fill="url(#indigo3)" transform="translate(2 2)" style="mix-blend-mode:multiply"/><path d="M610 1110A36 36 0 1 1 609 1110Z" fill="none" stroke="#1c1b1f" stroke-width="10" stroke-linejoin="round" transform="translate(4 4)"/><path d="M1390 1110A36 36 0 1 1 1389 1110Z" fill="#f4ecd8"/><path d="M1390 1110A36 36 0 1 1 1389 1110Z" fill="url(#indigo3)" transform="translate(2 2)" style="mix-blend-mode:multiply"/><path d="M1390 1110A36 36 0 1 1 1389 1110Z" fill="none" stroke="#1c1b1f" stroke-width="10" stroke-linejoin="round" transform="translate(4 4)"/></g><rect width="2000" height="2000" filter="url(#s)"/><rect width="2000" height="2000" filter="url(#g)"/></svg>